<?xml version="1.0" encoding="UTF-8" standalone="no"?>
<!-- Created with Inkscape (http://www.inkscape.org/) -->

<svg
   xmlns:dc="http://purl.org/dc/elements/1.1/"
   xmlns:cc="http://creativecommons.org/ns#"
   xmlns:rdf="http://www.w3.org/1999/02/22-rdf-syntax-ns#"
   xmlns:svg="http://www.w3.org/2000/svg"
   xmlns="http://www.w3.org/2000/svg"
   xmlns:sodipodi="http://sodipodi.sourceforge.net/DTD/sodipodi-0.dtd"
   xmlns:inkscape="http://www.inkscape.org/namespaces/inkscape"
   width="132.29166mm"
   height="23.98789mm"
   viewBox="0 0 132.29166 23.98789"
   version="1.1"
   id="svg8"
   inkscape:version="0.92.4 (f8dce91, 2019-08-02)"
   sodipodi:docname="logo-grande-white-original.svg">
  <defs
     id="defs2" />
  <sodipodi:namedview
     id="base"
     pagecolor="#ffffff"
     bordercolor="#666666"
     borderopacity="1.0"
     inkscape:pageopacity="0.0"
     inkscape:pageshadow="2"
     inkscape:zoom="0.7"
     inkscape:cx="117.21903"
     inkscape:cy="46.743341"
     inkscape:document-units="mm"
     inkscape:current-layer="text817"
     showgrid="false"
     fit-margin-top="0"
     fit-margin-left="0"
     fit-margin-right="0"
     fit-margin-bottom="0"
     inkscape:window-width="1853"
     inkscape:window-height="1052"
     inkscape:window-x="67"
     inkscape:window-y="0"
     inkscape:window-maximized="1" />
  <metadata
     id="metadata5">
    <rdf:RDF>
      <cc:Work
         rdf:about="">
        <dc:format>image/svg+xml</dc:format>
        <dc:type
           rdf:resource="http://purl.org/dc/dcmitype/StillImage" />
        <dc:title></dc:title>
      </cc:Work>
    </rdf:RDF>
  </metadata>
  <g
     inkscape:label="Layer 1"
     inkscape:groupmode="layer"
     id="layer1"
     transform="translate(321.39664,-119.74559)">
    <g
       aria-label="TWENDE"
       style="font-style:normal;font-weight:normal;font-size:31.90077972px;line-height:1.25;font-family:sans-serif;letter-spacing:0px;word-spacing:0px;fill:#f0d71f;fill-opacity:1;stroke:none;stroke-width:0.79751951"
       id="text817">
      <path
         d="m -320.71127,125.50892 q -0.0311,-0.24923 -0.12461,-0.43615 -0.0623,-0.21807 -0.15577,-0.46729 -0.15576,-0.37384 -0.28037,-0.80998 -0.12462,-0.43615 -0.12462,-1.02806 0.0623,-0.31153 0.15577,-0.43614 0.0935,-0.15576 0.18692,-0.24922 l 0.12461,-0.56076 h 0.4673 q 0.24922,0.0311 0.49845,0.0311 0.28037,0 0.5296,0 1.18382,0 2.42994,-0.0935 1.24613,-0.0935 2.55456,-0.21807 1.43304,-0.18692 3.08415,-0.28038 0.15577,-0.34268 0.18692,-0.43614 0.0623,-0.0935 0.12461,-0.21807 l 0.34269,-0.18692 q 0.71652,-0.0311 0.9969,0.18692 0.28038,0.18692 0.43614,0.37384 0.80998,-0.0623 1.65112,-0.15577 0.84113,-0.12461 1.74457,-0.24922 1.24612,-0.15577 2.5234,-0.31153 1.27728,-0.15577 2.49225,-0.15577 0.5296,0 0.9969,0.0311 0.4673,0.0312 0.90344,0.0935 l 0.37384,0.28038 q 0.12461,0.21807 0.31153,0.40499 0.18692,0.18692 0.43614,0.37384 0.4673,0.37384 0.90344,0.93459 0.4673,0.56076 0.34268,1.65112 l -0.15576,0.31153 q -0.12461,0.12461 -0.31153,0.24922 l -0.31153,0.40499 h -0.34269 q -0.31153,0 -0.46729,0.0623 -0.15577,0.0311 -0.37384,0.12461 -0.12461,0.0623 -0.28038,0.12461 -0.15576,0.0312 -0.34268,0.0935 -0.34269,-0.0311 -0.52961,-0.0311 -0.18691,0 -0.43614,0 -0.93459,0 -2.02495,0.12461 -1.09036,0.12461 -2.11841,0.28038 -0.74768,0.0935 -1.43305,0.18692 -0.68536,0.0623 -1.24612,0.12461 -0.31153,0.80998 -0.56076,1.43304 -0.24922,0.62307 -0.5296,1.24613 -0.28038,0.62306 -0.5296,1.27727 -0.24923,0.62307 -0.4673,1.40189 -0.37383,0.56076 -0.62306,1.09036 -0.24922,0.49845 -0.40499,1.15267 -0.4673,0.5296 -0.68537,1.15266 -0.18692,0.62307 -0.34268,1.05921 l -0.12461,0.4673 q -0.21808,0.21807 -0.28038,0.34268 -0.0312,0.12461 -0.15577,0.28038 -0.0935,0.40499 -0.24922,0.77882 -0.0623,0.15577 -0.12462,0.34269 -0.0623,0.15576 -0.0312,0.24922 -0.0623,0.34269 -0.18692,0.52961 0,0.18692 -0.0312,0.37383 -0.0311,0.18692 -0.0623,0.37384 -0.0623,0.21807 -0.0935,0.40499 -0.0312,0.15577 0.0312,0.31153 0.0935,0.12462 0.18692,0.24923 0.0935,0.12461 0.15576,0.31153 0.0623,0.0623 0.15577,0.0935 0.0935,0.0311 0.15576,0.0935 0.24923,0.21807 0.4673,0.24922 l 0.31153,0.37384 q 0.18692,1.12151 -0.34268,1.74457 -0.56076,0.71652 -1.86919,0.71652 l -0.43614,-0.0311 q -0.21808,-0.21807 -0.24923,-0.28038 -0.28038,-0.12461 -0.4673,-0.21807 -0.18691,-0.0623 -0.34268,-0.28038 -0.0623,-0.0623 -0.15576,-0.0623 -0.0935,-0.0312 -0.15577,-0.0935 -0.31153,-0.0935 -0.49845,-0.21807 l -0.34268,-0.18692 q 0.0312,-0.31153 0.0312,-0.43615 -0.24923,-0.34268 -0.40499,-0.74767 -0.12461,-0.40499 -0.21807,-0.84113 -0.0935,-0.34269 -0.18692,-0.62307 -0.0623,-0.28037 -0.21807,-0.49845 -0.0623,-2.18071 0.40499,-3.64491 0.46729,-1.49535 1.02805,-2.89724 0.31153,-0.74767 0.59191,-1.5265 0.28038,-0.77883 0.49845,-1.58881 l 0.34268,-0.34268 q 0.21807,-0.18692 0.28038,-0.21807 0,-0.40499 0.15577,-0.77883 0.15576,-0.40499 0.34268,-0.80998 0.12461,-0.24923 0.21807,-0.49845 0.12461,-0.24923 0.15577,-0.43615 -0.21807,0 -0.40499,0.0312 -0.15577,0 -0.34269,0.0311 -0.40499,0.0935 -0.77883,0.0935 -0.28037,0 -0.40499,-0.0312 -0.24922,0.12461 -0.46729,0.15576 -0.21807,0 -0.43615,0 h -0.37383 -0.37384 q -0.37384,0 -0.59191,0.0935 -0.43614,0 -0.56076,0 -0.12461,0 -0.28037,0 h -0.37384 -0.37384 q -0.24922,0 -0.56075,-0.0311 -0.31153,-0.0623 -0.65422,-0.24923 l -0.21807,-0.24922 q -0.18692,-0.34269 -0.34268,-0.37384 l -0.34269,-0.0935 z"
         style="font-style:normal;font-variant:normal;font-weight:normal;font-stretch:normal;font-family:'Permanent Marker';-inkscape-font-specification:'Permanent Marker';fill:#ffffff;fill-opacity:1;stroke-width:0.79751951"
         id="path848" />
      <path
         d="m -299.58946,140.8674 q -0.15577,-0.34269 -0.31153,-0.65422 -0.15577,-0.31153 -0.31154,-0.56075 -0.37383,-0.74768 -0.65421,-1.33959 -0.28038,-0.5919 -0.5296,-1.37073 0.0935,-0.52961 0.31153,-1.77573 0.24922,-1.24612 0.56075,-2.71032 0.31153,-1.49535 0.65422,-3.02185 0.37384,-1.5265 0.74767,-2.61686 0.34269,-0.96575 0.74768,-2.05611 0.43614,-1.09036 0.93459,-1.9938 0.5296,-0.93459 1.12151,-1.5888 0.59191,-0.65422 1.27728,-0.77883 0.18692,0.24922 0.40499,0.40499 0.21807,0.12461 0.40499,0.18692 0.5296,0.74767 1.02805,1.27728 0.49845,0.49844 1.18382,0.99689 -0.18692,0.9346 -0.56075,2.08726 -0.34269,1.12151 -0.74768,2.27418 -0.37384,1.15266 -0.74767,2.24302 -0.37384,1.05921 -0.59191,1.83804 -0.18692,0.62306 -0.37384,1.43304 -0.15577,0.68537 -0.34268,1.65111 -0.15577,0.96575 -0.31154,2.11841 0.43615,-0.12461 0.96575,-0.49845 0.56076,-0.37383 1.02805,-0.77882 0.56076,-0.4673 1.09036,-0.9969 0.71652,-0.71652 1.21497,-1.30843 0.49845,-0.59191 0.90344,-1.21497 0.43615,-0.65422 0.87229,-1.40189 0.4673,-0.77883 1.09036,-1.83804 0.56076,-0.90344 1.15266,-1.93149 0.62307,-1.02805 1.24613,-1.96264 0.62306,-0.9346 1.21497,-1.71343 0.59191,-0.80998 1.09036,-1.24612 0.34268,0.34268 0.77883,0.71652 0.46729,0.37384 0.9969,0.5296 0.21807,0.34269 0.40499,0.62307 0.21807,0.24922 0.40499,0.49845 0.24922,0.34268 0.43614,0.62306 0.21807,0.28038 0.37384,0.62306 -0.0312,0.24923 -0.12462,0.65422 -0.0623,0.40499 -0.15576,0.90344 -0.0935,0.46729 -0.21807,0.96574 -0.0935,0.49845 -0.18692,0.96575 -0.31153,1.40189 -0.4673,2.11841 -0.15576,0.71652 -0.21807,1.12151 -0.0623,0.40499 -0.0935,0.68537 0,0.28038 0,0.77883 0,0.37383 0.0623,0.74767 0.0623,0.34269 0.12461,0.71652 0.0935,0.34269 0.31153,0.65422 l 1.49535,-1.15267 q 0.62306,-0.46729 1.18382,-1.30843 0.59191,-0.87228 1.12151,-1.96264 0.56076,-1.12151 1.09036,-2.39879 0.5296,-1.30843 1.0592,-2.67917 0.37384,-0.9969 0.74768,-1.96264 0.40499,-0.9969 0.80998,-1.86919 0.40499,-0.90344 0.77883,-1.61996 0.40499,-0.74768 0.77882,-1.24613 0.84114,0.52961 1.43305,1.05921 0.62306,0.5296 1.0592,1.18382 0.4673,0.62306 0.71652,1.46419 0.28038,0.80998 0.40499,1.9315 -0.68536,1.30843 -1.27727,2.67916 -0.59191,1.37074 -1.18382,2.77263 -0.74768,1.80688 -1.55766,3.61376 -0.77882,1.77573 -1.74457,3.39569 -0.96575,1.61996 -2.18072,2.9907 -1.18382,1.33958 -2.74147,2.27417 -0.43614,-0.0935 -0.74768,-0.0935 -0.34268,0 -0.5919,0.0935 -0.21808,0.0935 -0.40499,0.24923 -1.27728,-0.59191 -2.05611,-1.74458 -0.77883,-1.18381 -1.5265,-2.61686 -0.0935,-0.21807 -0.21807,-0.40499 -0.0935,-0.21807 -0.21808,-0.43614 l -0.5296,-0.96575 -0.31153,-0.59191 -0.43614,0.40499 -0.65422,0.59191 -0.37384,0.37384 q -0.96574,0.90344 -1.96264,1.77573 -0.9969,0.84113 -2.08726,1.55765 -1.09036,0.68537 -2.33648,1.12151 -1.21497,0.43615 -2.61686,0.4673 -0.24923,-0.12461 -0.4673,-0.21807 -0.18692,-0.0935 -0.37384,-0.18692 -0.71652,-0.34268 -1.18381,-0.65421 -0.4673,-0.31154 -1.09036,-0.96575 z"
         style="font-style:normal;font-variant:normal;font-weight:normal;font-stretch:normal;font-family:'Permanent Marker';-inkscape-font-specification:'Permanent Marker';fill:#ffffff;fill-opacity:1;stroke-width:0.79751951"
         id="path850" />
      <path
         d="m -268.56097,142.02006 q -0.24922,-0.24922 -0.37384,-0.59191 -0.0934,-0.34268 -0.49845,-0.56075 -0.0623,-0.4673 -0.18691,-1.05921 -0.0935,-0.62306 -0.21808,-1.24612 -0.0934,-0.65422 -0.15576,-1.27728 -0.0312,-0.65421 0.0623,-1.18382 0.0623,-0.28037 0.18691,-0.5296 0.15577,-0.24922 0.28038,-0.4673 0.15577,-0.24922 0.21807,-0.49845 0.0935,-0.24922 0.0312,-0.49844 0.18692,-0.0312 0.21807,-0.18692 0.0623,-0.18692 0.31153,-0.12462 0.21807,-0.68536 0.4673,-1.27727 0.24922,-0.59191 0.5296,-1.15267 0.28038,-0.56075 0.56075,-1.12151 0.31154,-0.59191 0.56076,-1.30843 -0.5296,-0.49845 -0.77883,-1.05921 -0.21807,-0.5919 -0.34268,-1.18381 -0.12461,-0.59191 -0.18692,-1.18382 -0.0623,-0.62306 -0.24922,-1.24613 0.37383,-0.56075 0.90344,-0.90344 0.5296,-0.37383 1.15266,-0.59191 0.65422,-0.24922 1.40189,-0.37383 0.74767,-0.15577 1.58881,-0.34269 1.49535,-0.46729 2.67917,-0.71652 1.18381,-0.28038 2.30533,-0.43614 1.12151,-0.18692 2.33648,-0.31153 1.21497,-0.15577 2.80378,-0.43615 0.0311,0.0935 0.0935,0.0935 0.0935,0 0.21807,0 0.0935,0.21808 0.34268,0.21808 0,-0.0935 -0.0311,-0.15577 0,-0.0935 0,-0.15577 0.0623,0 0.15577,0.0312 0.12461,0.0311 0.18691,0.0623 0.0935,0.0312 0.15577,0 0.0623,-0.0623 0.0311,-0.21807 0.37384,0.65422 0.96575,1.09036 0.59191,0.40499 1.30843,0.71652 0.0311,0.28038 0,0.40499 0,0.12461 -0.0311,0.24923 -0.0312,0.0935 -0.0312,0.24922 0,0.12461 0.0623,0.37384 -0.49845,0.84113 -1.15267,1.30843 -0.62306,0.4673 -1.33958,0.71652 -0.71652,0.24923 -1.5265,0.37384 -0.77883,0.12461 -1.61996,0.28038 -0.80998,0.12461 -1.65112,0.37383 -0.84113,0.24923 -1.65111,0.74768 -0.24923,-0.0935 -0.4673,-0.0623 -0.18692,0 -0.40499,0.0623 -0.21807,0.0623 -0.49845,0.12461 -0.24922,0.0623 -0.62306,0 -0.24923,0.21807 -0.59191,0.31153 -0.31153,0.0935 -0.65421,0.18692 0.15576,0.34268 0.12461,0.68537 0,0.34268 0.0935,0.59191 1.30843,0.12461 2.89724,0 1.5888,-0.15577 3.11531,-0.21807 0.0311,0.15576 -0.0312,0.21807 -0.0623,0.0623 -0.0623,0.21807 0.28037,0.18692 0.5296,0.4673 0.24922,0.28037 0.49845,0.56075 0.28038,0.24923 0.56076,0.43614 0.28037,0.15577 0.65421,0.12462 0.15577,0.31153 0.21807,0.65421 0.0623,0.34269 -0.0935,0.71652 -0.62306,0.40499 -1.21497,0.84114 -0.59191,0.40499 -1.24612,0.74767 -0.62306,0.34269 -1.37074,0.56076 -0.74767,0.21807 -1.61996,0.18692 -0.15577,0 -0.28038,0 -0.0935,0 -0.24922,-0.12462 -0.31153,0.15577 -0.84114,0.12462 -0.49845,-0.0623 -0.84113,0.0935 -0.43614,-0.15577 -1.02805,-0.15577 -0.56076,0 -0.9969,-0.15576 -0.56076,0.80998 -1.05921,1.71342 -0.49845,0.87228 -0.87229,1.86918 1.27728,0.18692 2.11842,0.15577 0.84113,-0.0312 1.5888,-0.12461 0.74768,-0.0935 1.52651,-0.18692 0.80998,-0.0935 1.96264,-0.0623 0.77883,-0.37384 1.77573,-0.49845 1.02805,-0.15576 1.90034,-0.43614 0.31153,0.0935 0.5296,0.37383 0.21807,0.24923 0.40499,0.52961 0.21807,0.24922 0.43614,0.43614 0.21808,0.18692 0.56076,0.12461 0.15577,0.15577 0.18692,0.37384 0.0623,0.21807 0.0935,0.40499 0.0623,0.18692 0.15576,0.31153 0.0935,0.0935 0.34269,0.0623 -0.59191,1.21497 -1.33959,1.86918 -0.71652,0.65422 -1.65111,1.02806 -0.90344,0.34268 -2.0561,0.5296 -1.12152,0.15577 -2.52341,0.40499 -0.34268,0.0623 -0.59191,0 -0.21807,-0.0935 -0.46729,-0.0935 -0.87229,0.15577 -2.08726,0.31153 -1.18382,0.15577 -2.39879,0.12461 -1.21497,-0.0311 -2.33648,-0.31153 -1.12151,-0.28037 -1.86919,-0.9969 z"
         style="font-style:normal;font-variant:normal;font-weight:normal;font-stretch:normal;font-family:'Permanent Marker';-inkscape-font-specification:'Permanent Marker';fill:#ffffff;fill-opacity:1;stroke-width:0.79751951"
         id="path852" />
      <path
         d="m -244.66654,140.15088 q -0.31153,0.24922 -0.37384,0.65421 -0.0623,0.37384 -0.15576,0.74768 -0.0935,0.37383 -0.34269,0.65421 -0.21807,0.24923 -0.80998,0.21807 -0.12461,0.15577 -0.0623,0.18692 0.0935,0.0312 0.15576,0.28038 -0.43614,-0.0623 -0.62306,0.0623 -0.18692,0.12461 -0.4673,0.18692 -0.71652,-0.21808 -1.21497,-0.77883 -0.46729,-0.59191 -0.84113,-1.27728 -0.34269,-0.68537 -0.62306,-1.40189 -0.24923,-0.71652 -0.52961,-1.24612 0,-0.12462 0.12462,-0.0935 0.0934,0 0.18691,0 -0.15576,-0.31153 -0.21807,-0.68537 -0.0935,-0.40499 -0.31153,-0.65422 0.90344,-1.93149 1.93149,-4.01875 1.02806,-2.11841 2.05611,-4.26797 1.0592,-2.18072 2.08726,-4.36144 1.0592,-2.21187 2.02495,-4.33028 0.87229,0.31153 1.68227,0.74768 0.84113,0.40499 1.5265,0.96574 0.68537,0.56076 1.15266,1.30843 0.49845,0.71652 0.65422,1.65112 -0.0623,0.18692 -0.15577,0.12461 -0.0935,-0.0623 -0.15576,0.0623 0.15576,0.18691 0.15576,0.28037 0.0312,0.0623 0,0.15577 -0.0311,0.0623 -0.0311,0.18692 0,0.12461 0.15577,0.34268 -0.15577,-0.0312 -0.21808,0.0623 -0.0623,0.0623 -0.21807,0 0.15577,0.43614 0.0935,0.68537 -0.0623,0.24922 -0.18692,0.46729 -0.12461,0.18692 -0.21807,0.43615 -0.0623,0.21807 0.0623,0.62306 -0.12462,0 -0.18692,0.0623 -0.0311,0.0312 -0.0623,0.0935 -0.0311,0.0623 -0.0935,0.12462 -0.0311,0.0311 -0.15576,0 0.0935,0.80998 0.0623,1.65111 -0.0311,0.80998 -0.0623,1.68227 -0.0312,0.84113 0,1.74457 0.0311,0.90344 0.24922,1.86919 1.33959,-0.77883 2.14957,-2.02495 0.84113,-1.24613 1.30843,-2.77263 0.49845,-1.5265 0.74767,-3.27107 0.28038,-1.74458 0.56076,-3.55146 0.34268,-0.34268 0.5296,-0.84113 0.21807,-0.49845 0.34268,-1.02806 0.15577,-0.5296 0.28038,-1.0592 0.15577,-0.56076 0.40499,-0.9969 0.56076,0.0623 0.9346,0.34268 0.40499,0.24923 0.74767,0.59191 0.34268,0.31153 0.71652,0.59191 0.37384,0.28038 0.93459,0.37384 0.43615,0.62306 0.80999,1.21497 0.37383,0.56076 0.49845,1.27728 -0.18692,0.31153 -0.28038,0.68537 -0.0935,0.37383 -0.21807,0.74767 -0.0935,0.37384 -0.28038,0.68537 -0.18692,0.31153 -0.52961,0.5296 -0.0934,0.93459 -0.28037,1.74458 -0.18692,0.80998 -0.34269,1.5888 -0.15576,0.77883 -0.28038,1.61997 -0.12461,0.84113 -0.0934,1.83803 -0.28038,0.90344 -0.62307,1.86918 -0.34268,0.9346 -0.49845,1.74458 -0.59191,0.4673 -0.93459,1.15266 -0.34268,0.68537 -0.71652,1.37074 -0.15577,0.12461 -0.18692,0.0623 -0.0311,-0.0935 -0.28038,-0.12462 0.0312,0.28038 -0.12461,0.37384 -0.12461,0.0623 0.0311,0.43614 -0.5296,0.24923 -0.93459,0.65422 -0.40499,0.40499 -0.90344,0.74767 -0.4673,0.34269 -1.12151,0.4673 -0.62306,0.0935 -1.65112,-0.28038 -1.5265,-1.12151 -2.74147,-2.5857 -1.21497,-1.4642 -1.93149,-3.458 -0.31153,0.0935 -0.4673,0.40499 -0.15576,0.31153 -0.28038,0.65422 -0.12461,0.34268 -0.24922,0.62306 -0.12461,0.28038 -0.37384,0.28038 -0.0623,0.28037 -0.24922,0.5296 -0.15577,0.21807 -0.31153,0.4673 -0.15577,0.21807 -0.24923,0.49845 -0.0623,0.28037 0.0935,0.62306 z"
         style="font-style:normal;font-variant:normal;font-weight:normal;font-stretch:normal;font-family:'Permanent Marker';-inkscape-font-specification:'Permanent Marker';fill:#ffffff;fill-opacity:1;stroke-width:0.79751951"
         id="path854" />
      <path
         d="m -225.38276,143.42195 q -0.90344,-0.21807 -1.40189,-0.71652 -0.4673,-0.5296 -0.71652,-1.21497 -0.21808,-0.71652 -0.31154,-1.55765 -0.0623,-0.84114 -0.15576,-1.74458 0.12461,-0.40499 0.31153,-0.68537 0.21807,-0.28037 0.18692,-0.77882 0.34268,-0.9969 0.62306,-1.9315 0.28038,-0.93459 0.37384,-1.93149 0.18692,-0.28038 0.37383,-0.37384 0.24923,-1.77572 0.0623,-3.64491 -0.18692,-1.86919 -0.62306,-3.45799 0.0311,-0.34269 0.0935,-0.49845 0.0623,-0.18692 0,-0.31154 -0.0623,-0.28037 0.18692,-0.28037 0.24922,0 0.49845,0 0,-0.56076 -0.21808,-1.09036 -0.18691,-0.56076 -0.37383,-1.27728 0.24922,-0.56075 0.34268,-1.09036 0.0935,-0.5296 0.34269,-0.96574 0.9969,0.31153 1.96264,0.71652 0.96575,0.40499 1.90034,0.80998 0.93459,0.37384 1.83803,0.74767 0.90344,0.34269 1.77573,0.56076 1.33958,0.96574 2.74147,1.93149 1.43305,0.93459 2.58571,2.08726 1.18382,1.12151 1.96265,2.58571 0.77883,1.46419 0.90344,3.45799 -0.0623,0.18692 -0.0935,0.31153 -0.0311,0.12462 -0.0623,0.24923 -0.0312,0.12461 -0.0312,0.28038 0,0.15576 0,0.43614 -1.12151,1.96264 -2.83493,3.30223 -1.71342,1.33958 -3.73838,2.36763 -2.02495,1.02806 -4.23682,1.90034 -2.18072,0.84114 -4.26797,1.80688 z m 3.053,-17.66381 q -0.28038,0 -0.40499,0.12462 0.37384,1.40189 0.56076,2.64801 0.18691,1.24612 0.18691,2.49225 0.0312,1.24612 -0.12461,2.55455 -0.15576,1.30843 -0.43614,2.83493 0.40499,-0.0311 0.71652,-0.15576 0.31153,-0.12461 0.62306,-0.28038 0.34269,-0.15576 0.68537,-0.28038 0.37384,-0.12461 0.84113,-0.15576 0.12462,-0.24923 0.31154,-0.37384 0.21807,-0.15576 0.37383,-0.31153 0.77883,-0.31153 1.55766,-0.65422 0.77883,-0.34268 1.43304,-0.77882 0.65422,-0.43615 1.18382,-0.9969 0.5296,-0.56076 0.87229,-1.33959 -0.24923,-0.46729 -0.62307,-0.77882 -0.34268,-0.34269 -0.74767,-0.65422 -0.37384,-0.34268 -0.74768,-0.68537 -0.34268,-0.37383 -0.56075,-0.84113 -0.49845,-0.0623 -0.87229,-0.24923 -0.37384,-0.21807 -0.71652,-0.40499 -0.34268,-0.21807 -0.74767,-0.40499 -0.37384,-0.18692 -0.90344,-0.21807 -0.80998,-0.43614 -1.4642,-0.59191 -0.65422,-0.18692 -0.9969,-0.49845 z"
         style="font-style:normal;font-variant:normal;font-weight:normal;font-stretch:normal;font-family:'Permanent Marker';-inkscape-font-specification:'Permanent Marker';fill:#ffffff;fill-opacity:1;stroke-width:0.79751951"
         id="path856" />
      <path
         d="m -208.1551,142.02006 q -0.24922,-0.24922 -0.37384,-0.59191 -0.0935,-0.34268 -0.49845,-0.56075 -0.0623,-0.4673 -0.18692,-1.05921 -0.0934,-0.62306 -0.21807,-1.24612 -0.0935,-0.65422 -0.15576,-1.27728 -0.0312,-0.65421 0.0623,-1.18382 0.0623,-0.28037 0.18692,-0.5296 0.15577,-0.24922 0.28038,-0.4673 0.15577,-0.24922 0.21807,-0.49845 0.0935,-0.24922 0.0312,-0.49844 0.18691,-0.0312 0.21807,-0.18692 0.0623,-0.18692 0.31153,-0.12462 0.21807,-0.68536 0.46729,-1.27727 0.24923,-0.59191 0.52961,-1.15267 0.28038,-0.56075 0.56075,-1.12151 0.31153,-0.59191 0.56076,-1.30843 -0.5296,-0.49845 -0.77883,-1.05921 -0.21807,-0.5919 -0.34268,-1.18381 -0.12462,-0.59191 -0.18692,-1.18382 -0.0623,-0.62306 -0.24923,-1.24613 0.37384,-0.56075 0.90344,-0.90344 0.52961,-0.37383 1.15267,-0.59191 0.65421,-0.24922 1.40189,-0.37383 0.74767,-0.15577 1.58881,-0.34269 1.49535,-0.46729 2.67916,-0.71652 1.18382,-0.28038 2.30533,-0.43614 1.12152,-0.18692 2.33649,-0.31153 1.21497,-0.15577 2.80378,-0.43615 0.0311,0.0935 0.0935,0.0935 0.0935,0 0.21807,0 0.0935,0.21808 0.34268,0.21808 0,-0.0935 -0.0311,-0.15577 0,-0.0935 0,-0.15577 0.0623,0 0.15576,0.0312 0.12462,0.0311 0.18692,0.0623 0.0935,0.0312 0.15577,0 0.0623,-0.0623 0.0311,-0.21807 0.37384,0.65422 0.96575,1.09036 0.59191,0.40499 1.30843,0.71652 0.0311,0.28038 0,0.40499 0,0.12461 -0.0312,0.24923 -0.0311,0.0935 -0.0311,0.24922 0,0.12461 0.0623,0.37384 -0.49845,0.84113 -1.15267,1.30843 -0.62306,0.4673 -1.33958,0.71652 -0.71652,0.24923 -1.5265,0.37384 -0.77883,0.12461 -1.61996,0.28038 -0.80999,0.12461 -1.65112,0.37383 -0.84113,0.24923 -1.65111,0.74768 -0.24923,-0.0935 -0.4673,-0.0623 -0.18692,0 -0.40499,0.0623 -0.21807,0.0623 -0.49845,0.12461 -0.24922,0.0623 -0.62306,0 -0.24923,0.21807 -0.59191,0.31153 -0.31153,0.0935 -0.65422,0.18692 0.15577,0.34268 0.12462,0.68537 0,0.34268 0.0935,0.59191 1.30843,0.12461 2.89723,0 1.58881,-0.15577 3.11531,-0.21807 0.0312,0.15576 -0.0311,0.21807 -0.0623,0.0623 -0.0623,0.21807 0.28037,0.18692 0.5296,0.4673 0.24922,0.28037 0.49845,0.56075 0.28038,0.24923 0.56075,0.43614 0.28038,0.15577 0.65422,0.12462 0.15576,0.31153 0.21807,0.65421 0.0623,0.34269 -0.0935,0.71652 -0.62306,0.40499 -1.21497,0.84114 -0.59191,0.40499 -1.24612,0.74767 -0.62307,0.34269 -1.37074,0.56076 -0.74768,0.21807 -1.61996,0.18692 -0.15577,0 -0.28038,0 -0.0935,0 -0.24922,-0.12462 -0.31154,0.15577 -0.84114,0.12462 -0.49845,-0.0623 -0.84113,0.0935 -0.43615,-0.15577 -1.02806,-0.15577 -0.56075,0 -0.99689,-0.15576 -0.56076,0.80998 -1.05921,1.71342 -0.49845,0.87228 -0.87229,1.86918 1.27728,0.18692 2.11841,0.15577 0.84114,-0.0312 1.58881,-0.12461 0.74768,-0.0935 1.5265,-0.18692 0.80999,-0.0935 1.96265,-0.0623 0.77883,-0.37384 1.77573,-0.49845 1.02805,-0.15576 1.90034,-0.43614 0.31153,0.0935 0.5296,0.37383 0.21807,0.24923 0.40499,0.52961 0.21807,0.24922 0.43614,0.43614 0.21808,0.18692 0.56076,0.12461 0.15576,0.15577 0.18692,0.37384 0.0623,0.21807 0.0935,0.40499 0.0623,0.18692 0.15576,0.31153 0.0935,0.0935 0.34269,0.0623 -0.59191,1.21497 -1.33959,1.86918 -0.71652,0.65422 -1.65111,1.02806 -0.90344,0.34268 -2.05611,0.5296 -1.12151,0.15577 -2.5234,0.40499 -0.34268,0.0623 -0.59191,0 -0.21807,-0.0935 -0.46729,-0.0935 -0.87229,0.15577 -2.08726,0.31153 -1.18382,0.15577 -2.39879,0.12461 -1.21497,-0.0311 -2.33648,-0.31153 -1.12152,-0.28037 -1.86919,-0.9969 z"
         style="font-style:normal;font-variant:normal;font-weight:normal;font-stretch:normal;font-family:'Permanent Marker';-inkscape-font-specification:'Permanent Marker';fill:#ffffff;fill-opacity:1;stroke-width:0.79751951"
         id="path858" />
    </g>
  </g>
</svg>
