<?xml version="1.0" encoding="UTF-8" standalone="no"?>
<svg
   xmlns:dc="http://purl.org/dc/elements/1.1/"
   xmlns:cc="http://creativecommons.org/ns#"
   xmlns:rdf="http://www.w3.org/1999/02/22-rdf-syntax-ns#"
   xmlns:svg="http://www.w3.org/2000/svg"
   xmlns="http://www.w3.org/2000/svg"
   id="svg1205"
   version="1.1"
   viewBox="0 0 52.916664 9.7549753"
   height="9.7549753mm"
   width="52.916664mm">
  <defs
     id="defs1199" />
  <metadata
     id="metadata1202">
    <rdf:RDF>
      <cc:Work
         rdf:about="">
        <dc:format>image/svg+xml</dc:format>
        <dc:type
           rdf:resource="http://purl.org/dc/dcmitype/StillImage" />
        <dc:title></dc:title>
      </cc:Work>
    </rdf:RDF>
  </metadata>
  <g
     transform="translate(197.15289,-42.609427)"
     id="layer1">
    <path
       id="path961-5-1-8"
       d="m -188.51604,44.691661 c -0.93431,0.0172 -1.85054,0.228434 -2.78133,0.288815 -0.21811,0.754566 -0.66125,1.424268 -0.85111,2.188584 -0.28964,0.415576 -0.39571,0.927576 -0.67039,1.352872 -0.0921,0.516029 -0.44627,0.903254 -0.54316,1.411136 -0.13853,0.442502 -0.31905,1.072631 0.26483,1.263008 0.46212,0.332946 0.0695,1.085836 -0.43505,1.132937 -0.51769,0.173392 -0.86321,-0.338858 -1.30399,-0.489206 -0.22223,-0.451781 -0.35183,-0.940473 -0.4623,-1.42715 -0.10793,-1.27389 0.57819,-2.415151 0.95677,-3.589146 0.19413,-0.433914 0.43672,-0.853255 0.59734,-1.311006 0.072,-0.376813 -0.62016,-0.02882 -0.83151,-0.09206 -0.39705,0.04912 -0.79833,0.03073 -1.19674,0.06485 -0.43642,0.09088 -0.87426,-0.100733 -1.07328,-0.505192 -0.17709,-0.397282 -0.40745,-0.836652 -0.25972,-1.282374 0.0293,-0.662702 0.80919,-0.255493 1.22428,-0.381019 0.93862,-0.03397 1.87055,-0.157892 2.80586,-0.235669 0.12676,-0.623762 0.74548,-0.14904 1.08951,-0.12985 1.32167,-0.09941 2.64922,-0.509676 3.97941,-0.264507 0.3203,0.32227 0.71884,0.605542 0.91449,1.023735 0.19161,0.663364 -0.47137,0.938503 -1.00838,0.979987 -0.13676,0.03676 -0.27758,0.0088 -0.41553,0.0012 z"
       style="font-style:normal;font-variant:normal;font-weight:normal;font-stretch:normal;font-size:10.58333302px;line-height:1.25;font-family:'Permanent Marker';-inkscape-font-specification:'Permanent Marker';letter-spacing:0px;word-spacing:0px;fill:#222222;fill-opacity:1;stroke:none;stroke-width:0.38908187" />
    <path
       id="path963-3-2-7"
       d="m -181.12956,52.199723 c -0.97143,-0.437576 -1.2752,-1.548441 -1.79076,-2.389254 -0.16407,-0.724259 -0.61207,0.131613 -0.93402,0.329372 -0.94437,0.898636 -2.05179,1.832756 -3.42184,1.870829 -0.60894,-0.18326 -1.28115,-0.537147 -1.55563,-1.148791 -0.18345,-0.535058 -0.67128,-1.035793 -0.47544,-1.64229 0.38162,-1.963635 0.68371,-4.020928 1.75806,-5.749422 0.26479,-0.624438 1.06903,-0.743052 1.30844,-0.04441 0.56139,0.303859 0.77583,0.881725 0.45188,1.445473 -0.46371,1.524574 -1.14984,3.023986 -1.23917,4.628646 0.47193,0.01485 0.84389,-0.547911 1.22141,-0.825756 1.19215,-1.203892 1.8299,-2.810213 2.80065,-4.177217 0.33102,-0.401195 0.70883,-1.350329 1.20358,-0.630556 0.52274,0.372666 1.1061,0.983987 0.87879,1.681746 -0.20672,0.745522 -0.34724,1.508618 -0.48553,2.269978 -0.0178,0.36424 -0.14574,1.352299 0.33216,1.26239 0.48302,-0.370813 0.94633,-0.7888 1.22266,-1.345476 0.86437,-1.623717 1.27924,-3.454341 2.23493,-5.032648 0.60409,0.01029 1.00249,0.673863 1.27642,1.147099 0.41018,0.608571 0.23088,1.31755 -0.14176,1.887387 -0.88459,1.902665 -1.48306,4.019192 -2.95618,5.576897 -0.40301,0.512779 -0.95557,0.825417 -1.59757,0.824417 l -0.0912,0.06162 z"
       style="font-style:normal;font-variant:normal;font-weight:normal;font-stretch:normal;font-size:10.58333302px;line-height:1.25;font-family:'Permanent Marker';-inkscape-font-specification:'Permanent Marker';letter-spacing:0px;word-spacing:0px;fill:#222222;fill-opacity:1;stroke:none;stroke-width:0.38908187" />
    <path
       id="path965-5-7-9"
       d="m -168.24935,43.445388 c 0.0697,0.459825 -0.14235,0.931326 -0.57101,1.135438 -0.86498,0.531543 -1.95424,0.340446 -2.84601,0.805962 -0.47209,0.254728 -1.11485,0.04191 -1.51198,0.453207 -0.12206,0.590512 0.55448,0.487589 0.92465,0.453708 0.5295,-0.02882 1.05701,-0.09573 1.58786,-0.0975 0.009,0.544264 0.64976,0.664084 0.94693,0.976413 0.13059,0.498104 -0.44843,0.703774 -0.77368,0.926635 -0.5053,0.316565 -1.10747,0.49156 -1.70381,0.415238 -0.49369,0.0525 -1.00332,-0.03441 -1.48417,-0.01176 -0.33141,0.281756 -0.44239,0.738332 -0.67468,1.096836 -0.28281,0.55716 0.67928,0.318299 0.97734,0.355534 0.61544,-0.04323 1.22648,-0.172466 1.84585,-0.141173 0.48919,-0.189362 1.12861,-0.365592 1.59864,-0.314196 0.26192,0.381856 0.74364,0.503264 0.86576,0.940531 0.18098,0.344549 -0.31544,0.722494 -0.56902,0.952678 -0.6041,0.44659 -1.38476,0.469899 -2.09492,0.615674 -0.39925,0.119261 -0.80246,-0.05544 -1.2016,0.09558 -0.93656,0.134996 -1.96729,0.205097 -2.82896,-0.257786 -0.41065,-0.270404 -0.63653,-0.741891 -0.6687,-1.223009 -0.1075,-0.57341 -0.30114,-1.239832 0.0593,-1.763037 0.10309,-0.389254 0.38787,-0.664613 0.5083,-1.038911 0.21449,-0.502133 0.49355,-0.975163 0.68358,-1.488016 -0.5491,-0.475957 -0.44797,-1.264434 -0.63828,-1.899813 0.47568,-0.688215 1.37974,-0.719803 2.11428,-0.918826 1.31281,-0.458369 2.71541,-0.509441 4.07153,-0.768184 0.18736,0.296624 0.58317,-0.197671 0.67352,0.246934 0.1926,0.209097 0.45306,0.340564 0.70926,0.451869 z"
       style="font-style:normal;font-variant:normal;font-weight:normal;font-stretch:normal;font-size:10.58333302px;line-height:1.25;font-family:'Permanent Marker';-inkscape-font-specification:'Permanent Marker';letter-spacing:0px;word-spacing:0px;fill:#222222;fill-opacity:1;stroke:none;stroke-width:0.38908187" />
    <path
       id="path967-6-0-2"
       d="m -165.59669,49.236015 c -0.37797,0.291712 -0.43393,0.824182 -0.77104,1.157407 -0.17979,0.401547 -0.15771,0.877622 -0.36957,1.255743 -0.32529,0.249434 -0.71266,0.644099 -1.13527,0.292007 -0.50669,-0.420209 -0.69698,-1.08844 -0.92563,-1.680011 -0.15942,-0.425752 -0.0898,-0.886003 0.15022,-1.264154 0.99757,-2.100837 2.05579,-4.173041 3.00578,-6.296318 0.82233,0.331476 1.74253,0.807285 2.01285,1.722171 -0.0657,0.292741 0.0404,0.613658 -0.17049,0.805785 0.0882,0.461002 -0.36351,0.863181 -0.28195,1.318065 0.0132,0.799712 -0.10382,1.614483 0.096,2.400489 1.04466,-0.606085 1.4377,-1.84899 1.6621,-2.963443 0.10559,-0.591027 0.18088,-1.186937 0.28332,-1.778493 0.38574,-0.450399 0.36475,-1.083807 0.62314,-1.595836 0.57362,0.224949 1.09484,0.670172 1.53869,1.049911 0.46068,0.446193 0.31211,1.078586 0.0259,1.569145 -0.34471,0.4329 -0.30283,0.987281 -0.44078,1.493413 -0.10499,0.50628 -0.19323,1.022309 -0.16632,1.541353 -0.27047,0.570042 -0.273,1.263169 -0.73153,1.739449 -0.20585,0.44137 -0.50375,0.774228 -0.78085,1.137026 -0.41888,0.314771 -0.833,0.802756 -1.4205,0.653467 -0.58087,-0.133673 -0.96758,-0.64782 -1.35848,-1.061249 -0.36596,-0.444399 -0.65567,-0.952223 -0.84562,-1.495927 z"
       style="font-style:normal;font-variant:normal;font-weight:normal;font-stretch:normal;font-size:10.58333302px;line-height:1.25;font-family:'Permanent Marker';-inkscape-font-specification:'Permanent Marker';letter-spacing:0px;word-spacing:0px;fill:#222222;fill-opacity:1;stroke:none;stroke-width:0.38908187" />
    <path
       id="path969-2-9-0"
       d="m -152.48391,47.898553 c -0.0638,0.358063 -0.10749,0.736302 -0.3889,0.999677 -0.9086,1.200245 -2.31453,1.865211 -3.66782,2.435489 -0.72142,0.294756 -1.45665,0.557983 -2.15949,0.896385 -0.6066,-0.103085 -0.91124,-0.742537 -0.97381,-1.2978 -0.16885,-0.621379 0.06,-1.237332 0.25686,-1.820668 0.12382,-0.38021 0.25243,-0.76536 0.27619,-1.167511 0.37582,-0.456148 0.14618,-1.068322 0.17475,-1.600321 -0.015,-0.587498 -0.23985,-1.15132 -0.23477,-1.738891 0.029,-0.26658 0.44773,-0.05338 0.28696,-0.376415 -0.19892,-0.422106 -0.2437,-0.866034 -0.0707,-1.304477 0.14074,-0.574984 0.76759,0.03426 1.11043,0.08103 0.67489,0.292182 1.33489,0.643319 2.06187,0.789918 1.05039,0.770698 2.27661,1.426576 2.9227,2.611454 0.25681,0.453854 0.37988,0.974089 0.40576,1.492119 z m -3.60203,0.835917 c 0.79386,-0.298109 1.69015,-0.680907 2.03659,-1.519838 -0.25355,-0.491486 -0.84793,-0.692892 -1.0791,-1.200701 -0.54219,-0.133819 -0.98046,-0.531852 -1.54022,-0.619188 -0.26992,-0.09544 -0.75762,-0.407076 -0.93557,-0.248272 0.37235,1.336976 0.36368,2.760082 0.0913,4.113808 0.14484,0.314167 0.55716,-0.197774 0.834,-0.159761 0.24069,-0.05426 0.43136,-0.188009 0.59294,-0.366048 z"
       style="font-style:normal;font-variant:normal;font-weight:normal;font-stretch:normal;font-size:10.58333302px;line-height:1.25;font-family:'Permanent Marker';-inkscape-font-specification:'Permanent Marker';letter-spacing:0px;word-spacing:0px;fill:#222222;fill-opacity:1;stroke:none;stroke-width:0.38908187" />
    <path
       id="path971-9-3-2"
       d="m -144.24932,43.445388 c 0.0699,0.459825 -0.14235,0.931326 -0.57102,1.135438 -0.86496,0.531543 -1.95423,0.340446 -2.846,0.805962 -0.47209,0.254742 -1.11482,0.04191 -1.51196,0.453207 -0.12205,0.590512 0.55447,0.487589 0.92464,0.453708 0.5295,-0.02882 1.05701,-0.09573 1.58785,-0.0975 0.009,0.544264 0.64976,0.664114 0.94694,0.976399 0.13059,0.498118 -0.44843,0.703788 -0.7737,0.926649 -0.50528,0.316565 -1.10746,0.49156 -1.7038,0.415238 -0.49371,0.0525 -1.00332,-0.03441 -1.48418,-0.01176 -0.33141,0.281742 -0.4424,0.738317 -0.67467,1.096836 -0.28283,0.55716 0.67928,0.318299 0.97733,0.355534 0.61542,-0.04323 1.22647,-0.172466 1.84582,-0.141173 0.48921,-0.189347 1.12863,-0.365607 1.59866,-0.314182 0.26192,0.381901 0.74372,0.503221 0.86579,0.940517 0.18088,0.344593 -0.31546,0.722494 -0.56906,0.952664 -0.6041,0.446604 -1.38478,0.469913 -2.09494,0.615688 -0.39925,0.119261 -0.80246,-0.05544 -1.20158,0.09558 -0.93656,0.134996 -1.96731,0.205097 -2.82898,-0.257786 -0.41066,-0.270404 -0.63651,-0.741905 -0.66868,-1.223009 -0.1075,-0.57341 -0.30113,-1.239832 0.0593,-1.763037 0.10308,-0.389239 0.38785,-0.664613 0.50831,-1.038897 0.21448,-0.502147 0.49354,-0.975192 0.68357,-1.48803 -0.54911,-0.475957 -0.44798,-1.264434 -0.63828,-1.899813 0.47566,-0.688215 1.37972,-0.719803 2.11426,-0.918826 1.31283,-0.458369 2.71541,-0.509427 4.07153,-0.768184 0.18736,0.296624 0.58318,-0.197671 0.67354,0.246934 0.1926,0.209112 0.45303,0.340593 0.70929,0.451869 z"
       style="font-style:normal;font-variant:normal;font-weight:normal;font-stretch:normal;font-size:10.58333302px;line-height:1.25;font-family:'Permanent Marker';-inkscape-font-specification:'Permanent Marker';letter-spacing:0px;word-spacing:0px;fill:#222222;fill-opacity:1;stroke:none;stroke-width:0.38908187" />
  </g>
</svg>
